<svg id="Group_23" data-name="Group 23" xmlns="http://www.w3.org/2000/svg" xmlns:xlink="http://www.w3.org/1999/xlink"
  width="30.02" height="30" viewBox="0 0 30.02 30">
  <defs>
    <clipPath id="clip-path">
      <rect id="Rectangle_20" data-name="Rectangle 20" width="30.02" height="30" fill="#a3a493" />
    </clipPath>
  </defs>
  <g id="Group_22" data-name="Group 22" clip-path="url(#clip-path)">
    <path id="Path_19" data-name="Path 19"
      d="M15.02.009c4.251,0,8.5.014,12.752-.009A2.2,2.2,0,0,1,30,1.819a2.212,2.212,0,0,1,.024.334q0,12.85,0,25.7A2.135,2.135,0,0,1,27.941,30c-.056,0-.112,0-.169,0H2.24A2.1,2.1,0,0,1,.105,28.473a2.472,2.472,0,0,1-.1-.689Q0,15,0,2.224A2.21,2.21,0,0,1,2.212,0c2.912.025,5.823.008,8.735.008H15.02m.992,13.063c0-.5-.011-1.02.005-1.541.008-.251-.08-.318-.323-.316-1.226.011-2.453.013-3.679,0-.282,0-.367.072-.366.36q.013,6.853,0,13.706c0,.274.088.353.354.351q1.91-.016,3.82,0c.273,0,.371-.066.369-.36q-.018-3.426,0-6.853a8.708,8.708,0,0,1,.115-1.449,2.228,2.228,0,0,1,1.647-2.02,3.961,3.961,0,0,1,1-.093,1.833,1.833,0,0,1,1.956,1.54A8.387,8.387,0,0,1,21.1,18.17c.021,2.359.008,4.718.009,7.078,0,.368.009.377.379.377h3.764c.375,0,.376,0,.376-.37,0-2.724,0-5.449,0-8.173a10.724,10.724,0,0,0-.342-2.745,4.115,4.115,0,0,0-2.918-3.19,10.493,10.493,0,0,0-1.736-.267,4.552,4.552,0,0,0-3.566,1.086,13.844,13.844,0,0,0-1.046,1.1M4.4,18.416c0,2.293,0,4.586-.006,6.879,0,.265.086.336.336.335q1.937-.013,3.875,0c.264,0,.33-.095.33-.346q-.009-6.865,0-13.73c0-.279-.095-.343-.356-.34q-1.923.017-3.847,0c-.279,0-.34.09-.339.352.009,2.284.005,4.567.005,6.851M6.656,9.3A2.606,2.606,0,1,0,4.064,6.7,2.59,2.59,0,0,0,6.656,9.3"
      transform="translate(0 0.001)" fill="#a3a493" />
  </g>
</svg>
