<svg xmlns="http://www.w3.org/2000/svg" width="728.817" height="58.15" viewBox="0 0 728.817 58.15">
  <g id="Group_5" data-name="Group 5" transform="translate(-56.536 -241.128)">
    <path id="Path_61" data-name="Path 61"
      d="M58.153,277.955H62.6a1.619,1.619,0,0,1,1.613,1.617v2.744c0,5.574,3.716,9.287,9.29,9.287,5.978,0,9.286-3.876,9.286-10.9V243.548a1.622,1.622,0,0,1,1.617-1.614h4.44a1.62,1.62,0,0,1,1.616,1.614v37.96c0,10.581-6.864,17.768-16.959,17.768a16.469,16.469,0,0,1-16.963-16.96v-2.744a1.621,1.621,0,0,1,1.617-1.617"
      fill="#a3a493" />
    <path id="Path_62" data-name="Path 62"
      d="M104.755,280.863V243.548a1.62,1.62,0,0,1,1.616-1.613h4.44a1.62,1.62,0,0,1,1.617,1.613v38.124c0,7.265,4.442,9.932,10.5,9.932,6.946,0,10.5-3.958,10.5-9.932V243.548a1.62,1.62,0,0,1,1.616-1.613h4.44a1.62,1.62,0,0,1,1.617,1.613v37.315c0,12.113-7.592,18.414-18.172,18.414-11.226,0-18.172-6.3-18.172-18.414"
      fill="#a3a493" />
    <path id="Path_63" data-name="Path 63"
      d="M155.637,296.853v-53.3a1.62,1.62,0,0,1,1.616-1.617h4.44a1.62,1.62,0,0,1,1.616,1.617v21.4a.764.764,0,0,0,.809.809h17.767a.764.764,0,0,0,.809-.809v-21.4a1.62,1.62,0,0,1,1.613-1.617h4.443a1.62,1.62,0,0,1,1.614,1.617v53.3a1.62,1.62,0,0,1-1.614,1.617h-4.443a1.62,1.62,0,0,1-1.613-1.617V274.239a.764.764,0,0,0-.809-.808H164.118a.764.764,0,0,0-.809.808v22.614a1.62,1.62,0,0,1-1.616,1.617h-4.44a1.62,1.62,0,0,1-1.616-1.617"
      fill="#a3a493" />
    <path id="Path_64" data-name="Path 64"
      d="M232.121,286.194c1.7-3.23,1.779-10.016,1.779-15.991s-.081-12.761-1.779-15.992a10.265,10.265,0,0,0-18.09,0c-1.7,3.231-1.777,10.014-1.777,15.992s.082,12.761,1.777,15.991a10.265,10.265,0,0,0,18.09,0m-25.2,3.471c-2.422-5.006-2.585-11.952-2.585-19.462s.163-14.457,2.585-19.466c2.584-5.411,8.077-9.609,16.151-9.609s13.569,4.2,16.154,9.609c2.422,5.009,2.585,11.953,2.585,19.466s-.163,14.456-2.585,19.462c-2.585,5.411-8.077,9.613-16.154,9.613s-13.567-4.2-16.151-9.613"
      fill="#a3a493" />
    <path id="Path_65" data-name="Path 65"
      d="M343.564,266.567l5.655-23.26c.323-1.131.808-1.372,1.7-1.372h8a1.619,1.619,0,0,1,1.613,1.613v53.307a1.619,1.619,0,0,1-1.613,1.613h-3.876a1.62,1.62,0,0,1-1.617-1.613V254.7c0-.486-.645-.727-.8-.163l-5.655,22.373c-.323,1.05-.808,1.372-1.7,1.372h-4.2c-.886,0-1.372-.322-1.7-1.372l-5.655-22.373c-.16-.564-.8-.323-.8.163v42.159a1.62,1.62,0,0,1-1.617,1.613h-3.875a1.62,1.62,0,0,1-1.617-1.613V243.548a1.62,1.62,0,0,1,1.617-1.613h7.995c.887,0,1.373.241,1.7,1.372l5.653,23.26a.42.42,0,0,0,.808,0"
      fill="#a3a493" />
    <path id="Path_66" data-name="Path 66"
      d="M396.628,276.259c.486,0,.809-.241.646-.889l-5.251-22.534c-.079-.322-.16-.482-.32-.482h-.163c-.163,0-.241.16-.322.482L385.97,275.37c-.163.648.159.889.645.889Zm-24.391,21.08a4.431,4.431,0,0,1,.245-1.373l14.778-52.82a1.56,1.56,0,0,1,1.536-1.213h5.652a1.559,1.559,0,0,1,1.535,1.213l14.779,52.82a4.418,4.418,0,0,1,.241,1.373,1.278,1.278,0,0,1-1.372,1.131h-4.684a1.629,1.629,0,0,1-1.535-1.213L399.859,284.9a1.485,1.485,0,0,0-1.533-1.131H384.917a1.547,1.547,0,0,0-1.532,1.131l-3.556,12.357a1.626,1.626,0,0,1-1.535,1.213H373.61a1.279,1.279,0,0,1-1.373-1.131"
      fill="#a3a493" />
    <path id="Path_67" data-name="Path 67"
      d="M439.11,250.415v46.439a1.62,1.62,0,0,1-1.614,1.616h-4.443a1.62,1.62,0,0,1-1.616-1.616V250.415a.763.763,0,0,0-.809-.808h-13.97a1.62,1.62,0,0,1-1.617-1.614V243.55a1.621,1.621,0,0,1,1.617-1.616H453.81a1.62,1.62,0,0,1,1.614,1.616v4.443a1.62,1.62,0,0,1-1.614,1.614H439.918a.762.762,0,0,0-.808.808"
      fill="#a3a493" />
    <path id="Path_68" data-name="Path 68"
      d="M477.394,248.961H467.7a1.62,1.62,0,0,1-1.613-1.616V243.55a1.62,1.62,0,0,1,1.613-1.616h28.674a1.621,1.621,0,0,1,1.617,1.616v3.795a1.621,1.621,0,0,1-1.617,1.616h-9.693a.763.763,0,0,0-.806.809v40.783a.762.762,0,0,0,.806.808h10.5a1.621,1.621,0,0,1,1.616,1.617v3.876a1.62,1.62,0,0,1-1.616,1.616H466.895a1.621,1.621,0,0,1-1.617-1.616v-3.876a1.621,1.621,0,0,1,1.617-1.617h10.5a.762.762,0,0,0,.808-.808V249.77a.763.763,0,0,0-.808-.809"
      fill="#a3a493" />
    <path id="Path_69" data-name="Path 69"
      d="M514.707,296.853v-53.3a1.621,1.621,0,0,1,1.616-1.617h4.44a1.621,1.621,0,0,1,1.617,1.617v46.439a.763.763,0,0,0,.808.808h22.129a1.62,1.62,0,0,1,1.617,1.614v4.442a1.621,1.621,0,0,1-1.617,1.617H516.323a1.621,1.621,0,0,1-1.616-1.617"
      fill="#a3a493" />
    <path id="Path_70" data-name="Path 70"
      d="M580.774,276.259c.485,0,.808-.241.645-.889l-5.251-22.534c-.078-.322-.16-.482-.32-.482h-.163c-.162,0-.241.16-.322.482l-5.248,22.534c-.163.648.16.889.645.889Zm-24.391,21.08a4.427,4.427,0,0,1,.244-1.373l14.779-52.82a1.558,1.558,0,0,1,1.535-1.213h5.652a1.559,1.559,0,0,1,1.535,1.213l14.779,52.82a4.418,4.418,0,0,1,.241,1.373,1.278,1.278,0,0,1-1.372,1.131h-4.684a1.629,1.629,0,0,1-1.535-1.213L584,284.9a1.485,1.485,0,0,0-1.532-1.131h-13.41a1.547,1.547,0,0,0-1.532,1.131l-3.556,12.357a1.626,1.626,0,0,1-1.535,1.213h-4.681a1.279,1.279,0,0,1-1.375-1.131"
      fill="#a3a493" />
    <path id="Path_71" data-name="Path 71"
      d="M617.926,248.961h-9.694a1.62,1.62,0,0,1-1.614-1.616V243.55a1.62,1.62,0,0,1,1.614-1.616h28.674a1.62,1.62,0,0,1,1.614,1.616v3.795a1.62,1.62,0,0,1-1.614,1.616h-9.694a.763.763,0,0,0-.8.809v40.783a.762.762,0,0,0,.8.808h10.5a1.621,1.621,0,0,1,1.617,1.617v3.876a1.621,1.621,0,0,1-1.617,1.616H607.427a1.621,1.621,0,0,1-1.617-1.616v-3.876a1.621,1.621,0,0,1,1.617-1.617h10.5a.763.763,0,0,0,.808-.808V249.77a.763.763,0,0,0-.808-.809"
      fill="#a3a493" />
    <path id="Path_72" data-name="Path 72"
      d="M680.68,282.882c.244,0,.4-.244.4-.567V243.549a1.619,1.619,0,0,1,1.613-1.613h4.12a1.62,1.62,0,0,1,1.617,1.613v53.3a1.62,1.62,0,0,1-1.617,1.616h-6.7c-.89,0-1.294-.322-1.7-1.372L662.1,258.006c-.242-.646-.4-.809-.646-.809s-.4.245-.4.567v39.089a1.62,1.62,0,0,1-1.617,1.616H655.32a1.62,1.62,0,0,1-1.616-1.616v-53.3a1.62,1.62,0,0,1,1.616-1.613h6.7c.89,0,1.294.323,1.7,1.372l16.314,38.766c.241.645.4.808.646.808"
      fill="#a3a493" />
    <path id="Path_73" data-name="Path 73"
      d="M704.749,296.853v-53.3a1.621,1.621,0,0,1,1.617-1.617h27.7a1.621,1.621,0,0,1,1.616,1.617v4.443a1.619,1.619,0,0,1-1.616,1.613H713.231a.764.764,0,0,0-.809.809v14.537a.764.764,0,0,0,.809.809h19.948a1.619,1.619,0,0,1,1.614,1.613v4.443a1.62,1.62,0,0,1-1.614,1.614H713.231a.764.764,0,0,0-.809.808v15.75a.763.763,0,0,0,.809.808h21a1.62,1.62,0,0,1,1.616,1.614v4.442a1.621,1.621,0,0,1-1.616,1.617H706.366a1.621,1.621,0,0,1-1.617-1.617"
      fill="#a3a493" />
    <path id="Path_74" data-name="Path 74"
      d="M777.6,282.882c.241,0,.4-.244.4-.567V243.549a1.619,1.619,0,0,1,1.614-1.613h4.123a1.619,1.619,0,0,1,1.613,1.613v53.3a1.619,1.619,0,0,1-1.613,1.616h-6.705c-.89,0-1.291-.322-1.7-1.372l-16.314-39.091c-.241-.646-.4-.809-.646-.809s-.4.245-.4.567v39.089a1.622,1.622,0,0,1-1.619,1.616H752.24a1.622,1.622,0,0,1-1.617-1.616v-53.3a1.622,1.622,0,0,1,1.617-1.613h6.7c.889,0,1.293.323,1.7,1.372l16.311,38.766c.247.645.407.808.648.808"
      fill="#a3a493" />
    <path id="Path_75" data-name="Path 75"
      d="M274.91,249.488l22.606,19.795a1.167,1.167,0,0,1,0,1.837l-22.606,19.8a1.155,1.155,0,0,1-1.864-.919V250.407a1.155,1.155,0,0,1,1.864-.919"
      fill="red" />
  </g>
</svg>
